<?xml version="1.0" encoding="UTF-8"?>
<svg version="1.1" xmlns="http://www.w3.org/2000/svg" width="500" height="500">
<path d="M0 0 C0 10.89 0 21.78 0 33 C-2 32 -4 31 -6 30 C-6 29.34 -6 28.68 -6 28 C-7.78141747 27.13641377 -7.78141747 27.13641377 -10 27 C-12.14589423 28.89586384 -12.14589423 28.89586384 -14 31 C-14.66 31 -15.32 31 -16 31 C-16.33 31.99 -16.66 32.98 -17 34 C-19.66083969 35.99396257 -22.61242325 38 -26 38 C-26 38.66 -26 39.32 -26 40 C-28.12910009 41.85698196 -30.26124119 43.59659056 -32.5 45.3125 C-33.14420898 45.8087085 -33.78841797 46.30491699 -34.45214844 46.81616211 C-36.29305209 48.22234355 -38.14349007 49.61451316 -40 51 C-40.77859375 51.58265625 -41.5571875 52.1653125 -42.359375 52.765625 C-49.6388986 57.75901722 -57.62814624 58.5902683 -66.2578125 57.5390625 C-73.34219289 56.14640653 -79.4732098 53.82015882 -84 48 C-88.79566844 40.37611684 -91.06385881 34.07826184 -90 25 C-86.31310345 11.31424 -86.31310345 11.31424 -81 7 C-80.34 7 -79.68 7 -79 7 C-79 6.34 -79 5.68 -79 5 C-68.76999531 1.06267861 -60.02100496 -0.76928275 -49.39453125 2.76171875 C-43.73879776 5.68646184 -39.69206017 11.09198452 -36.9375 16.75 C-35.93150371 20.23745379 -35.88953148 21.60543984 -37 25 C-38.890625 26.87890625 -38.890625 26.87890625 -41.25 28.5625 C-42.01828125 29.12066406 -42.7865625 29.67882812 -43.578125 30.25390625 C-44.37734375 30.83011719 -45.1765625 31.40632813 -46 32 C-47.06541016 33.07314453 -47.06541016 33.07314453 -48.15234375 34.16796875 C-52.38228258 36.88928742 -56.37939437 36.67330154 -61.3125 36.75 C-62.24384766 36.77964844 -63.17519531 36.80929687 -64.13476562 36.83984375 C-66.42326265 36.91025904 -68.71075809 36.96309214 -71 37 C-69.29532084 40.29300666 -69.29532084 40.29300666 -65.9609375 40.73046875 C-64.77757812 40.88128906 -63.59421875 41.03210938 -62.375 41.1875 C-60.59222656 41.42533203 -60.59222656 41.42533203 -58.7734375 41.66796875 C-57.85820312 41.77753906 -56.94296875 41.88710938 -56 42 C-55.505 41.01 -55.505 41.01 -55 40 C-53.6326807 39.07705947 -52.26179213 38.15903916 -50.875 37.265625 C-45.85635335 33.87803851 -41.14879122 30.00962594 -36.5625 26.0625 C-34 24 -34 24 -32 24 C-32 23.34 -32 22.68 -32 22 C-30.234375 20.625 -30.234375 20.625 -27.75 19 C-23.57441773 16.16889599 -19.65584658 13.13738264 -15.8125 9.875 C-4.10099085 0 -4.10099085 0 0 0 Z M-69 17 C-69 17.66 -69 18.32 -69 19 C-69.66 19 -70.32 19 -71 19 C-71.33 19.99 -71.66 20.98 -72 22 C-65.4 22 -58.8 22 -52 22 C-54.98112292 16.75358243 -54.98112292 16.75358243 -60 15 C-63.38023517 15 -65.83468937 15.87455622 -69 17 Z " fill="#2A488D" transform="translate(336,237)"/>
<path d="M0 0 C8.600625 -0.12375 8.600625 -0.12375 17.375 -0.25 C19.16341309 -0.28641602 20.95182617 -0.32283203 22.79443359 -0.36035156 C32.31962771 -0.47569717 41.03814503 -0.52289149 48.47265625 6.25390625 C48.99730469 7.01574219 49.52195312 7.77757812 50.0625 8.5625 C50.61035156 9.32691406 51.15820312 10.09132812 51.72265625 10.87890625 C54.89525615 16.14716847 54.59443942 22.04016581 54 28 C52.93185155 30.63072371 51.58863936 32.61704095 50 35 C50 36.32 50 37.64 50 39 C50.763125 39.7425 51.52625 40.485 52.3125 41.25 C56.16681255 45.19394773 57.87731413 48.91322346 58.09765625 54.45703125 C57.67525128 61.16399803 56.03276871 66.84816185 51.30859375 71.7578125 C42.36271074 79.23982374 30.85340248 78.29598082 19.77416992 78.20581055 C17.41118832 78.18729382 15.04859422 78.18530314 12.68554688 78.18554688 C11.18489242 78.18063993 9.68424061 78.17481525 8.18359375 78.16796875 C7.12282875 78.16629951 7.12282875 78.16629951 6.04063416 78.16459656 C1.11613909 78.11613909 1.11613909 78.11613909 0 77 C-0.78602438 73.49364775 -0.88059302 70.49218034 0 67 C2.93755895 63.7165229 6.33173168 61.40660634 10 59 C10.70640625 58.41089844 11.4128125 57.82179688 12.140625 57.21484375 C12.75421875 56.81394531 13.3678125 56.41304688 14 56 C14.99 56.33 15.98 56.66 17 57 C17 58.65 17 60.3 17 62 C20.27184808 61.91915297 23.54182779 61.80631126 26.8125 61.6875 C28.2056543 61.65366211 28.2056543 61.65366211 29.62695312 61.61914062 C30.51962891 61.58369141 31.41230469 61.54824219 32.33203125 61.51171875 C33.15421143 61.48553467 33.9763916 61.45935059 34.82348633 61.43237305 C37.49219536 60.90222345 38.39447096 60.17296519 40 58 C40.75011367 54.54271642 40.75011367 54.54271642 40 51 C39.01 50.4534375 38.02 49.906875 37 49.34375 C34 47 34 47 33.45874023 45.04467773 C33.30021537 42.65082336 33.3290042 40.33392481 33.4375 37.9375 C33.43943359 37.12216797 33.44136719 36.30683594 33.44335938 35.46679688 C33.57749489 29.42076282 33.57749489 29.42076282 35.53930664 27.46704102 C36.02133545 26.98291748 36.50336426 26.49879395 37 26 C37.00082535 22.42243314 37.00082535 22.42243314 36 19 C32.27933528 16.51955685 29.13459526 16.55618827 24.8125 16.375 C24.06291016 16.33632812 23.31332031 16.29765625 22.54101562 16.2578125 C20.69440801 16.16371784 18.8472381 16.08077681 17 16 C17.10441406 16.7734375 17.20882813 17.546875 17.31640625 18.34375 C17.96682464 26.68562401 17.96682464 26.68562401 15.20703125 30.4375 C12.89667598 32.48082928 10.55115066 34.26871342 8 36 C7.07767578 36.680625 7.07767578 36.680625 6.13671875 37.375 C2.46354167 40 2.46354167 40 0 40 C0 26.8 0 13.6 0 0 Z " fill="#1BB5A4" transform="translate(304,216)"/>
<path d="M0 0 C0.99 0 1.98 0 3 0 C3 2.97 3 5.94 3 9 C4.98 9 6.96 9 9 9 C9 35.73 9 62.46 9 90 C1.08 90.495 1.08 90.495 -7 91 C-7 90.01 -7 89.02 -7 88 C-7.99 88.474375 -8.98 88.94875 -10 89.4375 C-18.06703256 92.81627717 -24.02153718 92.14460587 -32 89 C-36.03283651 87.293219 -38.56630727 85.69950441 -40.9375 81.875 C-42 79 -42 79 -42 77 C-42.66 77 -43.32 77 -44 77 C-46.79834352 69.65434826 -47.52110877 60.81110873 -45.13671875 53.26953125 C-44.44870032 51.77590579 -43.72483825 50.29797102 -42.95703125 48.84375 C-41.8022052 46.61894225 -41.31974505 44.47802413 -41 42 C-39.68 42 -38.36 42 -37 42 C-37 39.69 -37 37.38 -37 35 C-35.1875 34.3125 -35.1875 34.3125 -33 34 C-32 35 -31 36 -30 37 C-27.43479634 37.13030752 -27.43479634 37.13030752 -25 37 C-24.91892354 39.75059381 -24.85947187 42.49879021 -24.8125 45.25 C-24.78736328 46.02730469 -24.76222656 46.80460937 -24.73632812 47.60546875 C-24.67736677 52.20445476 -24.91282365 54.41951197 -28 58 C-28.91929119 63.01883296 -28.49741139 67.02232934 -26.1875 71.5625 C-23.39784877 74.67096851 -21.7309008 74.9187888 -17.625 75.375 C-13.85005616 75.32288226 -13.85005616 75.32288226 -11.125 72.625 C-8.26073733 69.08679317 -7.86201018 67.4684966 -7.875 63 C-7.87242187 62.113125 -7.86984375 61.22625 -7.8671875 60.3125 C-7.84872098 57.97323034 -7.84872098 57.97323034 -9 56 C-9.07194869 53.11629667 -9.09291708 50.25760336 -9.0625 47.375 C-9.05798828 46.57320312 -9.05347656 45.77140625 -9.04882812 44.9453125 C-9.03703168 42.96350994 -9.01909605 40.98174567 -9 39 C-8.34 39 -7.68 39 -7 39 C-7 29.1 -7 19.2 -7 9 C-5.02 9 -3.04 9 -1 9 C-1.020625 7.700625 -1.04125 6.40125 -1.0625 5.0625 C-1.08399454 3.70834367 -1.07148199 2.35243917 -1 1 C-0.67 0.67 -0.34 0.34 0 0 Z " fill="#2B3C8B" transform="translate(234,203)"/>
<path d="M0 0 C6.09032834 5.29637464 11.02517163 11.81144165 12 20 C12.65835178 29.71068881 10.2481705 37.58021016 3.95703125 45.08984375 C-1.44457637 50.36207155 -8.981743 52.62793917 -16.375 53.3125 C-24.47712672 52.6140408 -31.14181994 49.69189984 -37 44 C-43.37572126 35.89280114 -44.58673956 28.13831384 -44 18 C-43.70176495 16.32669646 -43.37996729 14.6566574 -43 13 C-42.34 13 -41.68 13 -41 13 C-40.773125 12.29875 -40.54625 11.5975 -40.3125 10.875 C-36.80602019 3.19413947 -31.67120841 0.07609263 -24.1875 -3.25 C-15.70291852 -5.24637211 -7.65246738 -4.28309742 0 0 Z " fill="#17C0A0" transform="translate(443,242)"/>
<path d="M0 0 C3.04595163 2.1500835 4.65551974 3.37602165 5.4375 7.0625 C5.66323385 9.03767118 5.83490323 11.01883872 6 13 C6.66 13.33 7.32 13.66 8 14 C8 26.21 8 38.42 8 51 C-7 52 -7 52 -12 51 C-13.66967972 51.6590841 -15.33607955 52.32650839 -17 53 C-24.17302025 53.71730202 -32.5942471 52.17185875 -38.5 47.8125 C-42.08556632 43.77873789 -43.87254727 40.13321293 -44.09375 34.6953125 C-43.68316935 28.59818986 -41.64950596 24.47287223 -37.125 20.25 C-31.22742395 16.78083762 -25.28253157 16.60293261 -18.625 16.375 C-17.69816406 16.33632813 -16.77132812 16.29765625 -15.81640625 16.2578125 C-13.5444623 16.16412409 -11.27251404 16.07840652 -9 16 C-12.4665812 12.11961519 -14.55994755 11.266359 -19.62109375 10.8828125 C-22.80922037 11.03986307 -25.3032526 11.96567155 -28.17578125 13.30859375 C-30 14 -30 14 -34 14 C-35.5625 11.875 -35.5625 11.875 -37 9 C-37.86625 7.453125 -37.86625 7.453125 -38.75 5.875 C-40 3 -40 3 -39 0 C-36.63671875 -0.9140625 -36.63671875 -0.9140625 -33.6875 -1.625 C-32.72199219 -1.86476562 -31.75648438 -2.10453125 -30.76171875 -2.3515625 C-29.85035156 -2.56554687 -28.93898437 -2.77953125 -28 -3 C-27.00419922 -3.28037109 -27.00419922 -3.28037109 -25.98828125 -3.56640625 C-17.02174307 -5.52178098 -8.21548333 -3.79654912 0 0 Z M-27 31 C-28.0146239 32.8064655 -28.0146239 32.8064655 -28 35 C-26.87755752 37.19852333 -26.87755752 37.19852333 -25 39 C-20.55425114 39.95696628 -16.22694525 39.46010447 -12 37.875 C-9.46828119 35.50151362 -8.99462921 33.27694801 -8 30 C-10.60423592 29.97302863 -13.20819244 29.95317511 -15.8125 29.9375 C-16.91948242 29.92493164 -16.91948242 29.92493164 -18.04882812 29.91210938 C-21.29922068 29.89740172 -23.89404895 29.96468298 -27 31 Z " fill="#2B3189" transform="translate(177,242)"/>
<path d="M0 0 C1.48125366 0.00424484 1.48125366 0.00424484 2.99243164 0.00857544 C6.12008215 0.0196943 9.24743728 0.04478334 12.375 0.0703125 C14.50650626 0.08035302 16.63801704 0.08947699 18.76953125 0.09765625 C23.9714665 0.11960643 29.17318331 0.15407859 34.375 0.1953125 C34.375 5.4753125 34.375 10.7553125 34.375 16.1953125 C26.785 16.5253125 19.195 16.8553125 11.375 17.1953125 C11.48199219 20.33933594 11.58898437 23.48335937 11.69921875 26.72265625 C11.79240103 29.79067415 11.8799849 32.85880482 11.96704102 35.92700195 C12.03020596 38.04827782 12.09912849 40.1693908 12.17407227 42.2902832 C12.28119465 45.35081994 12.36713329 48.41135772 12.44921875 51.47265625 C12.48657639 52.41052475 12.52393402 53.34839325 12.56242371 54.31468201 C12.71570601 61.13004546 12.13281199 68.0105589 7.5078125 73.3515625 C0.67159319 77.92677543 0.67159319 77.92677543 -3.625 78.1953125 C-4.97280755 75.4996974 -4.70353056 73.477269 -4.64672852 70.46044922 C-4.61658409 68.65880814 -4.61658409 68.65880814 -4.58583069 66.82077026 C-4.55879562 65.51866608 -4.53176056 64.21656189 -4.50390625 62.875 C-4.47960676 61.53265171 -4.45576311 60.19029509 -4.43235779 58.84793091 C-4.36949976 55.31327846 -4.30043808 51.7787732 -4.23010254 48.2442627 C-4.15943455 44.63817045 -4.09460842 41.03197378 -4.02929688 37.42578125 C-3.90026241 30.34884318 -3.76413713 23.2720602 -3.625 16.1953125 C-11.545 16.1953125 -19.465 16.1953125 -27.625 16.1953125 C-25.2978972 8.05045269 -25.2978972 8.05045269 -20.625 4.1953125 C-19.965 4.1953125 -19.305 4.1953125 -18.625 4.1953125 C-18.625 3.5353125 -18.625 2.8753125 -18.625 2.1953125 C-12.28030373 0.31660633 -6.59523835 -0.07219265 0 0 Z " fill="#1E1D80" transform="translate(72.625,215.8046875)"/>
<path d="M0 0 C0.33 0 0.66 0 1 0 C1.495 4.455 1.495 4.455 2 9 C1.01 8.67 0.02 8.34 -1 8 C-1.33 9.98 -1.66 11.96 -2 14 C-1.67 14 -1.34 14 -1 14 C-1 15.98 -1 17.96 -1 20 C-0.443125 19.649375 0.11375 19.29875 0.6875 18.9375 C4.45068629 17.41188394 7.1359154 18.67356804 10.8125 20.0625 C11.534375 20.371875 12.25625 20.68125 13 21 C13 21.66 13 22.32 13 23 C14.32 23 15.64 23 17 23 C20.29616409 30.11971443 20.66254272 35.67230627 18.3125 43.203125 C16.00669395 48.59706415 12.31022962 52.4812506 7 55 C-1.17568815 57.60101849 -9.74550771 57.27482913 -18.22583008 57.20581055 C-20.58881168 57.18729382 -22.95140578 57.18530314 -25.31445312 57.18554688 C-26.81510758 57.18063993 -28.31575939 57.17481525 -29.81640625 57.16796875 C-30.87717125 57.16629951 -30.87717125 57.16629951 -31.95936584 57.16459656 C-36.88386091 57.11613909 -36.88386091 57.11613909 -38 56 C-38.78602438 52.49364775 -38.88059302 49.49218034 -38 46 C-35.06244105 42.7165229 -31.66826832 40.40660634 -28 38 C-27.29359375 37.41089844 -26.5871875 36.82179688 -25.859375 36.21484375 C-25.24578125 35.81394531 -24.6321875 35.41304688 -24 35 C-23.01 35.33 -22.02 35.66 -21 36 C-21 37.65 -21 39.3 -21 41 C-17.72815192 40.91915297 -14.45817221 40.80631126 -11.1875 40.6875 C-9.7943457 40.65366211 -9.7943457 40.65366211 -8.37304688 40.61914062 C-7.48037109 40.58369141 -6.58769531 40.54824219 -5.66796875 40.51171875 C-4.84578857 40.48553467 -4.0236084 40.45935059 -3.17651367 40.43237305 C-0.50780464 39.90222345 0.39447096 39.17296519 2 37 C2.75011367 33.54271642 2.75011367 33.54271642 2 30 C1.01 29.4534375 0.02 28.906875 -1 28.34375 C-4 26 -4 26 -4.54125977 24.04467773 C-4.69978463 21.65082336 -4.6709958 19.33392481 -4.5625 16.9375 C-4.56056641 16.12216797 -4.55863281 15.30683594 -4.55664062 14.46679688 C-4.42318402 8.4513639 -4.42318402 8.4513639 -2.51147461 6.41235352 C-1.76329468 5.71323853 -1.76329468 5.71323853 -1 5 C-0.27802838 2.39388923 -0.27802838 2.39388923 0 0 Z " fill="#239DA9" transform="translate(342,237)"/>
<path d="M0 0 C1.17755859 -0.02126953 1.17755859 -0.02126953 2.37890625 -0.04296875 C4.4375 0.1875 4.4375 0.1875 6.4375 2.1875 C6.6328125 5.4453125 6.6328125 5.4453125 6.5625 9.3125 C6.54445313 10.59382812 6.52640625 11.87515625 6.5078125 13.1953125 C6.48460937 14.18273437 6.46140625 15.17015625 6.4375 16.1875 C5.62925781 16.29707031 4.82101562 16.40664062 3.98828125 16.51953125 C2.91964844 16.67808594 1.85101563 16.83664063 0.75 17 C-0.30574219 17.15082031 -1.36148437 17.30164063 -2.44921875 17.45703125 C-6.3065676 18.36208048 -9.41344662 19.4651771 -11.67822266 22.85986328 C-12.8698996 25.99665179 -12.8730884 28.75306147 -12.94140625 32.10546875 C-12.95840073 32.76331863 -12.9753952 33.42116852 -12.99290466 34.09895325 C-13.04584754 36.19087253 -13.08626842 38.28277315 -13.125 40.375 C-13.16891419 42.47784196 -13.21554595 44.58053026 -13.26780701 46.68318176 C-13.31432969 48.58316212 -13.35183369 50.48335687 -13.38891602 52.38354492 C-13.5625 55.1875 -13.5625 55.1875 -14.5625 56.1875 C-16.91563555 56.26021741 -19.27083668 56.27120868 -21.625 56.25 C-22.91535156 56.24097656 -24.20570313 56.23195313 -25.53515625 56.22265625 C-26.53417969 56.21105469 -27.53320312 56.19945312 -28.5625 56.1875 C-31.03686626 49.48118191 -30.85878319 42.96018574 -30.8125 35.875 C-30.82023437 34.70259766 -30.82796875 33.53019531 -30.8359375 32.32226562 C-30.81632577 23.54111495 -30.72873436 13.66963253 -25.5625 6.1875 C-22.27020602 3.7022975 -18.6681184 1.84439894 -14.5625 1.1875 C-13.9025 2.1775 -13.2425 3.1675 -12.5625 4.1875 C-11.799375 3.713125 -11.03625 3.23875 -10.25 2.75 C-6.70989 0.69179651 -4.03286227 0.03321962 0 0 Z " fill="#26B3A9" transform="translate(394.5625,237.8125)"/>
<path d="M0 0 C2.1346875 0.0309375 2.1346875 0.0309375 4.3125 0.0625 C4.3125 5.3425 4.3125 10.6225 4.3125 16.0625 C2.765625 16.165625 1.21875 16.26875 -0.375 16.375 C-4.56051401 16.77756712 -7.2230469 17.57242433 -10.6875 20.0625 C-11.3475 20.0625 -12.0075 20.0625 -12.6875 20.0625 C-14.93240193 27.36299409 -15.11984175 34.46052641 -15.3125 42.0625 C-15.35117188 43.31417969 -15.38984375 44.56585938 -15.4296875 45.85546875 C-15.5233908 48.92425188 -15.60650868 51.99335507 -15.6875 55.0625 C-20.9675 55.0625 -26.2475 55.0625 -31.6875 55.0625 C-31.71053612 50.06366219 -31.73042557 45.06501083 -31.74243164 40.06616211 C-31.74744027 38.36791355 -31.75424906 36.66966926 -31.76293945 34.97143555 C-31.77515773 32.52131085 -31.78076314 30.0712435 -31.78515625 27.62109375 C-31.79031754 26.86976669 -31.79547882 26.11843964 -31.80079651 25.34434509 C-31.80156955 17.97306879 -31.55286054 11.97983038 -26.6875 6.0625 C-23.62489862 3.5863542 -21.75799691 2.15558669 -17.8125 1.8125 C-17.11125 1.895 -16.41 1.9775 -15.6875 2.0625 C-15.3575 2.7225 -15.0275 3.3825 -14.6875 4.0625 C-13.594375 3.588125 -12.50125 3.11375 -11.375 2.625 C-7.46638863 0.92881016 -4.29236498 -0.06220819 0 0 Z " fill="#222281" transform="translate(130.6875,237.9375)"/>
<path d="M0 0 C5.15333531 4.38339727 9.11802249 9.4758113 11 16 C11.1875 18.625 11.1875 18.625 10 21 C7.51216179 23.02068955 4.94971045 24.73325318 2 26 C1.34 25.67 0.68 25.34 0 25 C0 24.34 0 23.68 0 23 C-0.99 23.33 -1.98 23.66 -3 24 C-3 22.35 -3 20.7 -3 19 C-3.70608398 19.01047363 -4.41216797 19.02094727 -5.13964844 19.03173828 C-8.34306266 19.0733479 -11.54641996 19.09934204 -14.75 19.125 C-15.86117188 19.14175781 -16.97234375 19.15851563 -18.1171875 19.17578125 C-19.72207031 19.18544922 -19.72207031 19.18544922 -21.359375 19.1953125 C-22.34389648 19.20578613 -23.32841797 19.21625977 -24.34277344 19.22705078 C-27.08975202 18.992331 -28.6363208 18.35740507 -31 17 C-32.3242287 16.63215869 -33.65613912 16.28797019 -35 16 C-35.33 14.68 -35.66 13.36 -36 12 C-36.103125 12.7425 -36.20625 13.485 -36.3125 14.25 C-37 17 -37 17 -38.53125 18.65625 C-40.66649395 22.06355417 -40.32130336 25.36627173 -40.1875 29.25 C-40.17396484 29.99507813 -40.16042969 30.74015625 -40.14648438 31.5078125 C-40.11127204 33.33885416 -40.05746851 35.16952169 -40 37 C-43.00756427 33.99243573 -43.19107221 30.77044947 -43.375 26.625 C-43.30750328 19.06536707 -40.8827183 10.39984716 -35.953125 4.5859375 C-34 3 -34 3 -32 3 C-32 2.34 -32 1.68 -32 1 C-21.29675602 -3.1194616 -10.72061073 -5.54393736 0 0 Z M-22 13 C-22 13.66 -22 14.32 -22 15 C-22.66 15 -23.32 15 -24 15 C-24.33 15.99 -24.66 16.98 -25 18 C-18.4 18 -11.8 18 -5 18 C-7.98112292 12.75358243 -7.98112292 12.75358243 -13 11 C-16.38023517 11 -18.83468937 11.87455622 -22 13 Z " fill="#355494" transform="translate(289,241)"/>
<path d="M0 0 C0.66 0.33 1.32 0.66 2 1 C2 1.99 2 2.98 2 4 C4.64 4.33 7.28 4.66 10 5 C10 5.33 10 5.66 10 6 C17.59 6.33 25.18 6.66 33 7 C33.495 8.98 33.495 8.98 34 11 C34.66 11 35.32 11 36 11 C36 11.66 36 12.32 36 13 C36.66 13 37.32 13 38 13 C36.95125002 15.62187494 36.35068687 16.79371361 33.875 18.25 C33.25625 18.4975 32.6375 18.745 32 19 C31.67 18.67 31.34 18.34 31 18 C29.29227642 17.91286169 27.58101351 17.89299993 25.87109375 17.90234375 C24.83662109 17.90556641 23.80214844 17.90878906 22.73632812 17.91210938 C21.64771484 17.92048828 20.55910156 17.92886719 19.4375 17.9375 C18.34501953 17.94201172 17.25253906 17.94652344 16.12695312 17.95117188 C13.41791505 17.96300174 10.70898401 17.97948457 8 18 C8.32742188 18.60328125 8.65484375 19.2065625 8.9921875 19.828125 C10.17423027 22.37547299 10.15421553 24.22412038 10 27 C8.35 27 6.7 27 5 27 C4.25042843 30.47147842 4.25042843 30.47147842 4 34 C2.68 34 1.36 34 0 34 C-3.23181351 28.99590167 -4.73044127 25.00576845 -5 19 C-5.06316406 18.16855469 -5.12632812 17.33710938 -5.19140625 16.48046875 C-5.46106969 10.67835544 -4.75622369 7.66682337 -1 3 C-0.67 2.01 -0.34 1.02 0 0 Z " fill="#28418A" transform="translate(253,253)"/>
<path d="M0 0 C7.61830411 -0.5949218 14.2537192 0.22409656 21 4 C27.09032834 9.29637464 32.02517163 15.81144165 33 24 C33.28011123 28.3679845 33.52044281 32.21933578 31 36 C31 35.01 31 34.02 31 33 C30.41605469 32.731875 29.83210938 32.46375 29.23046875 32.1875 C22.23941055 28.46546551 16.99216044 21.9317251 11.8828125 16.0390625 C10.16090625 13.93306009 10.16090625 13.93306009 8 13 C5.93914358 8.87828716 4.57838231 5.63779454 5 1 C3.35 1 1.7 1 0 1 C0 0.67 0 0.34 0 0 Z " fill="#A2F628" transform="translate(422,238)"/>
<path d="M0 0 C0.495 1.485 0.495 1.485 1 3 C-1 6 -1 6 -3.125 6.6875 C-3.74375 6.790625 -4.3625 6.89375 -5 7 C-5.93065133 9.60582371 -6.14917407 10.64198224 -5.0625 13.25 C-4.711875 13.8275 -4.36125 14.405 -4 15 C-4.66 15.66 -5.32 16.32 -6 17 C-6.474375 16.360625 -6.94875 15.72125 -7.4375 15.0625 C-11.08534488 12.12642973 -14.37769019 11.77230001 -19 12 C-21.17692542 12.60448896 -23.13089598 13.35259917 -25.17578125 14.30859375 C-27 15 -27 15 -31 15 C-32.5625 12.875 -32.5625 12.875 -34 10 C-34.5775 8.96875 -35.155 7.9375 -35.75 6.875 C-37 4 -37 4 -36 1 C-33.63671875 0.0859375 -33.63671875 0.0859375 -30.6875 -0.625 C-29.72199219 -0.86476562 -28.75648438 -1.10453125 -27.76171875 -1.3515625 C-26.85035156 -1.56554687 -25.93898437 -1.77953125 -25 -2 C-24.34 -2.18820313 -23.68 -2.37640625 -23 -2.5703125 C-15.65886709 -4.14750902 -6.62322053 -3.82290401 0 0 Z " fill="#262E84" transform="translate(174,241)"/>
<path d="M0 0 C1.32 0 2.64 0 4 0 C4.84098656 4.01804691 5.05404945 7.01803543 4 11 C5.32 11 6.64 11 8 11 C8 15.62 8 20.24 8 25 C6.68 25 5.36 25 4 25 C4 26.98 4 28.96 4 31 C2.68 30.67 1.36 30.34 0 30 C0 28.35 0 26.7 0 25 C-1.65 24.67 -3.3 24.34 -5 24 C-4.67 19.38 -4.34 14.76 -4 10 C-2.02 10.495 -2.02 10.495 0 11 C0 7.37 0 3.74 0 0 Z " fill="#263386" transform="translate(215,237)"/>
<path d="M0 0 C1.4540625 0.0309375 1.4540625 0.0309375 2.9375 0.0625 C3.2675 1.3825 3.5975 2.7025 3.9375 4.0625 C5.2575 4.0625 6.5775 4.0625 7.9375 4.0625 C7.9375 6.0625 7.9375 8.0625 7.9375 10.0625 C8.9275 10.0625 9.9175 10.0625 10.9375 10.0625 C10.6075 11.3825 10.2775 12.7025 9.9375 14.0625 C10.5975 14.3925 11.2575 14.7225 11.9375 15.0625 C9.9575 15.7225 7.9775 16.3825 5.9375 17.0625 C7.2464572 20.18447478 7.2464572 20.18447478 9.9375 22.0625 C5.39449372 21.86454766 1.88755059 21.6364889 -2.0625 19.25 C-4.04632135 17.0801954 -4.75345593 15.94691135 -5.0625 13.0625 C-4.4025 13.0625 -3.7425 13.0625 -3.0625 13.0625 C-3.3925 12.4025 -3.7225 11.7425 -4.0625 11.0625 C-4.15784254 9.3771804 -4.19235758 7.68800734 -4.1875 6 C-4.19007813 5.10152344 -4.19265625 4.20304687 -4.1953125 3.27734375 C-3.98694593 -0.19747516 -3.55958238 0.07264454 0 0 Z " fill="#19197D" transform="translate(140.0625,269.9375)"/>
<path d="M0 0 C0 4.62 0 9.24 0 14 C-4.29 14.66 -8.58 15.32 -13 16 C-13 15.34 -13 14.68 -13 14 C-13.99 13.34 -14.98 12.68 -16 12 C-17.21056661 9.37710567 -18.0864622 6.74061339 -19 4 C-18.01 4 -17.02 4 -16 4 C-16 3.34 -16 2.68 -16 2 C-11.51998442 -0.16774947 -4.69262804 -2.34631402 0 0 Z " fill="#25CCA2" transform="translate(401,240)"/>
<path d="M0 0 C4.04336666 1.63455248 6.97688702 3.06025367 9 7 C9.52470095 9.68009012 9.77242523 12.26910276 10 15 C5.545 17.97 5.545 17.97 1 21 C0.34 20.67 -0.32 20.34 -1 20 C-1 19.34 -1 18.68 -1 18 C-1.99 18.33 -2.98 18.66 -4 19 C-4.33 16.36 -4.66 13.72 -5 11 C-5.66 11 -6.32 11 -7 11 C-7 10.34 -7 9.68 -7 9 C-6.01 9.33 -5.02 9.66 -4 10 C-4 10.66 -4 11.32 -4 12 C-3.34 12 -2.68 12 -2 12 C-3.11854586 8.27385847 -3.11854586 8.27385847 -6 6 C-5.34 5.01 -4.68 4.02 -4 3 C-3.34 3 -2.68 3 -2 3 C-2 2.34 -2 1.68 -2 1 C-1.34 0.67 -0.68 0.34 0 0 Z " fill="#2B4C8D" transform="translate(290,246)"/>
<path d="M0 0 C11.22 0 22.44 0 34 0 C34 0.33 34 0.66 34 1 C23.11 1 12.22 1 1 1 C1 11.23 1 21.46 1 32 C1.99 31.67 2.98 31.34 4 31 C4.99 31.33 5.98 31.66 7 32 C7 31.34 7 30.68 7 30 C7.99 30 8.98 30 10 30 C9.34 28.02 8.68 26.04 8 24 C11.01031744 23.06576355 11.86650268 22.95550089 15 24 C14.98839844 23.36191406 14.97679687 22.72382813 14.96484375 22.06640625 C14.95582031 21.24011719 14.94679688 20.41382813 14.9375 19.5625 C14.92589844 18.73878906 14.91429687 17.91507813 14.90234375 17.06640625 C15 15 15 15 16 14 C17.68608966 13.92794489 19.37500659 13.91613932 21.0625 13.9375 C21.98160156 13.94652344 22.90070313 13.95554688 23.84765625 13.96484375 C24.55792969 13.97644531 25.26820313 13.98804688 26 14 C26 14.33 26 14.66 26 15 C23.03 15 20.06 15 17 15 C17.10441406 15.7734375 17.20882813 16.546875 17.31640625 17.34375 C17.96682464 25.68562401 17.96682464 25.68562401 15.20703125 29.4375 C12.89667598 31.48082928 10.55115066 33.26871342 8 35 C7.07767578 35.680625 7.07767578 35.680625 6.13671875 36.375 C2.46354167 39 2.46354167 39 0 39 C0 26.13 0 13.26 0 0 Z " fill="#389795" transform="translate(304,217)"/>
<path d="M0 0 C0.33 0 0.66 0 1 0 C1 26.73 1 53.46 1 81 C-6.92 81.495 -6.92 81.495 -15 82 C-14.67 80.35 -14.34 78.7 -14 77 C-13.01 77 -12.02 77 -11 77 C-10.67 77.66 -10.34 78.32 -10 79 C-5.65815798 78.81535634 -5.65815798 78.81535634 -2 77 C-1.93551417 73.96897334 -1.93400085 70.95998685 -1.97265625 67.9296875 C-1.98687506 65.99430733 -2.00052337 64.0589229 -2.01367188 62.12353516 C-2.02197021 61.10253723 -2.03026855 60.08153931 -2.03881836 59.02960205 C-2.18726181 39.25563316 -1.70978093 19.70340634 0 0 Z " fill="#6B78A6" transform="translate(242,212)"/>
<path d="M0 0 C0.87205078 -0.01224609 1.74410156 -0.02449219 2.64257812 -0.03710938 C3.90038086 -0.04000977 3.90038086 -0.04000977 5.18359375 -0.04296875 C5.9511499 -0.04707764 6.71870605 -0.05118652 7.50952148 -0.05541992 C9.5625 0.1875 9.5625 0.1875 12.5625 2.1875 C11.2425 2.1875 9.9225 2.1875 8.5625 2.1875 C9.036875 2.579375 9.51125 2.97125 10 3.375 C11.91429633 5.59558374 12.17516988 7.32125709 12.5625 10.1875 C8.79027911 11.93913456 5.895861 12.41240027 1.75 12.3125 C0.28626953 12.28542969 0.28626953 12.28542969 -1.20703125 12.2578125 C-1.94308594 12.23460937 -2.67914063 12.21140625 -3.4375 12.1875 C-3.4375 11.5275 -3.4375 10.8675 -3.4375 10.1875 C-2.7775 9.8575 -2.1175 9.5275 -1.4375 9.1875 C-1.7675 8.1975 -2.0975 7.2075 -2.4375 6.1875 C-3.0975 6.1875 -3.7575 6.1875 -4.4375 6.1875 C-4.4375 5.5275 -4.4375 4.8675 -4.4375 4.1875 C-5.406875 4.06375 -6.37625 3.94 -7.375 3.8125 C-8.385625 3.60625 -9.39625 3.4 -10.4375 3.1875 C-10.7675 2.5275 -11.0975 1.8675 -11.4375 1.1875 C-7.91593642 -0.57328179 -3.87858049 0.002854 0 0 Z " fill="#1F237D" transform="translate(157.4375,259.8125)"/>
<path d="M0 0 C-0.66 0 -1.32 0 -2 0 C-1.67 0.99 -1.34 1.98 -1 3 C-1.33 3.99 -1.66 4.98 -2 6 C-2.66 6 -3.32 6 -4 6 C-4.33 7.32 -4.66 8.64 -5 10 C-2.03 10.33 0.94 10.66 4 11 C4.33 11.99 4.66 12.98 5 14 C-1.93 14 -8.86 14 -16 14 C-13.6728972 5.85514019 -13.6728972 5.85514019 -9 2 C-8.34 2 -7.68 2 -7 2 C-7 1.34 -7 0.68 -7 0 C-3.86650268 -1.04449911 -3.01031744 -0.93423645 0 0 Z " fill="#27267D" transform="translate(61,218)"/>
<path d="M0 0 C6.625 -0.25 6.625 -0.25 10 2 C10.39872742 4.4803772 10.39872742 4.4803772 10.43237305 7.64306641 C10.46206429 9.41467636 10.46206429 9.41467636 10.49235535 11.22207642 C10.49874527 12.50230682 10.50513519 13.78253723 10.51171875 15.1015625 C10.52966995 16.40829926 10.54762115 17.71503601 10.56611633 19.06137085 C10.61369103 22.53669199 10.6434515 26.01194789 10.66955566 29.48748779 C10.69932394 33.03345633 10.74586691 36.57919984 10.79101562 40.125 C10.87713322 47.08320532 10.94444062 54.04148548 11 61 C9.515 61.495 9.515 61.495 8 62 C8 42.2 8 22.4 8 2 C5.36 1.67 2.72 1.34 0 1 C0 0.67 0 0.34 0 0 Z " fill="#1E1C64" transform="translate(61,230)"/>
<path d="M0 0 C14.85 0 29.7 0 45 0 C45 5.28 45 10.56 45 16 C41.7 16 38.4 16 35 16 C35 15.67 35 15.34 35 15 C36.98 15 38.96 15 41 15 C40.505 14.01 40.505 14.01 40 13 C39.95977609 10.6670134 39.95679753 8.33293334 40 6 C38.02 6 36.04 6 34 6 C34 5.01 34 4.02 34 3 C37.3 3 40.6 3 44 3 C44 2.34 44 1.68 44 1 C29.48 1 14.96 1 0 1 C0 0.67 0 0.34 0 0 Z " fill="#6566BD" transform="translate(62,216)"/>
<path d="M0 0 C0.33 0 0.66 0 1 0 C1 13.2 1 26.4 1 40 C3.97 40 6.94 40 10 40 C10 39.34 10 38.68 10 38 C10.66 38 11.32 38 12 38 C12 32.39 12 26.78 12 21 C12.33 21 12.66 21 13 21 C13 27.93 13 34.86 13 42 C8.05 42 3.1 42 -2 42 C-2 30.12 -2 18.24 -2 6 C-1.34 6 -0.68 6 0 6 C0 4.02 0 2.04 0 0 Z " fill="#403E7C" transform="translate(101,251)"/>
<path d="M0 0 C0.33 0 0.66 0 1 0 C1 10.23 1 20.46 1 31 C-3.62 31 -8.24 31 -13 31 C-14 30 -14 30 -14.11352539 27.95874023 C-14.10828857 27.08419189 -14.10305176 26.20964355 -14.09765625 25.30859375 C-14.09443359 24.36435547 -14.09121094 23.42011719 -14.08789062 22.44726562 C-14.07951172 21.45404297 -14.07113281 20.46082031 -14.0625 19.4375 C-14.05798828 18.44041016 -14.05347656 17.44332031 -14.04882812 16.41601562 C-14.03700007 13.94395151 -14.02051849 11.47200482 -14 9 C-13.34 9 -12.68 9 -12 9 C-11.67 14.94 -11.34 20.88 -11 27 C-8.36 27 -5.72 27 -3 27 C-2.01 18.09 -1.02 9.18 0 0 Z " fill="#22A3A4" transform="translate(379,263)"/>
<path d="M0 0 C0.50559908 1.43554025 1.0042749 2.8735202 1.5 4.3125 C1.7784375 5.11300781 2.056875 5.91351563 2.34375 6.73828125 C3 9 3 9 3 12 C3.82951172 12.32871094 3.82951172 12.32871094 4.67578125 12.6640625 C7.77398766 14.4448803 9.78945284 16.73254331 12.1875 19.375 C13.06792969 20.33148438 13.94835937 21.28796875 14.85546875 22.2734375 C16.76968005 24.70717063 17.63619514 25.98969315 18 29 C17.01 29.495 17.01 29.495 16 30 C16 28.68 16 27.36 16 26 C15.01 26 14.02 26 13 26 C13 25.01 13 24.02 13 23 C12.01 23.33 11.02 23.66 10 24 C6.125 18.375 6.125 18.375 5 15 C4.01 15 3.02 15 2 15 C1.67 15.66 1.34 16.32 1 17 C0.34 17 -0.32 17 -1 17 C-1 14.69 -1 12.38 -1 10 C-1.66 10 -2.32 10 -3 10 C-2.67 7.03 -2.34 4.06 -2 1 C-4.64 1.33 -7.28 1.66 -10 2 C-10 2.66 -10 3.32 -10 4 C-11.65 4 -13.3 4 -15 4 C-14 2 -14 2 -11.4375 0.875 C-7.41710538 -0.14837318 -4.13490187 -0.14258282 0 0 Z " fill="#3FCE97" transform="translate(427,239)"/>
<path d="M0 0 C7.61830411 -0.5949218 14.2537192 0.22409656 21 4 C27.09032834 9.29637464 32.02517163 15.81144165 33 24 C33.28011123 28.3679845 33.52044281 32.21933578 31 36 C31 35.01 31 34.02 31 33 C29.515 32.505 29.515 32.505 28 32 C28.66 31.67 29.32 31.34 30 31 C30.61195573 24.11549806 28.97781137 16.77076964 24.62109375 11.25390625 C23.45052004 10.13002209 22.22967886 9.05889013 21 8 C21 7.34 21 6.68 21 6 C15.555 5.505 15.555 5.505 10 5 C10 4.34 10 3.68 10 3 C9.278125 2.855625 8.55625 2.71125 7.8125 2.5625 C5.20833333 2.04166667 2.60416667 1.52083333 0 1 C0 0.67 0 0.34 0 0 Z " fill="#BBEC7C" transform="translate(422,238)"/>
<path d="M0 0 C1.32 0.33 2.64 0.66 4 1 C4 1.99 4 2.98 4 4 C5.93697967 4.33634376 7.87460486 4.66897165 9.8125 5 C10.89144531 5.185625 11.97039062 5.37125 13.08203125 5.5625 C16.00270898 6.07413786 16.00270898 6.07413786 19 6 C19 6.99 19 7.98 19 9 C19.763125 8.67 20.52625 8.34 21.3125 8 C26.25174651 6.66054332 30.91463109 6.83712342 36 7 C30.5483531 11.33518762 24.92267756 12.59678255 18 12 C11.42104645 10.58427582 5.83243138 7.73381033 1 3 C0.67 2.01 0.34 1.02 0 0 Z " fill="#45B7AB" transform="translate(405,283)"/>
<path d="M0 0 C-0.44785563 4.92641198 -2.6761138 8.45511073 -6 12 C-7.97620986 13.04622875 -9.9737129 14.05439935 -12 15 C-13.40466953 17.05093145 -13.40466953 17.05093145 -14 19 C-13.21625 18.79375 -12.4325 18.5875 -11.625 18.375 C-10.325625 18.189375 -10.325625 18.189375 -9 18 C-8.34 18.66 -7.68 19.32 -7 20 C-9.97 20.33 -12.94 20.66 -16 21 C-16.64800504 17.48637267 -16.82517167 14.4945523 -16 11 C-13.06813799 7.71126341 -9.66817467 5.4065449 -6 3 C-5.27296875 2.43152344 -4.5459375 1.86304688 -3.796875 1.27734375 C-2 0 -2 0 0 0 Z " fill="#207E99" transform="translate(320,272)"/>
<path d="M0 0 C1.35117416 0.0001133 1.35117416 0.0001133 2.72964478 0.00022888 C3.70364227 0.00539017 4.67763977 0.01055145 5.68115234 0.01586914 C6.67714447 0.01728409 7.6731366 0.01869904 8.6993103 0.02015686 C11.88860037 0.02576603 15.0778209 0.03832009 18.26708984 0.05102539 C20.425943 0.05603921 22.58479725 0.06060232 24.74365234 0.06469727 C30.04315534 0.07573844 35.34261763 0.09248552 40.64208984 0.11352539 C40.64208984 0.77352539 40.64208984 1.43352539 40.64208984 2.11352539 C8.33419086 3.30740942 8.33419086 3.30740942 -6.35791016 3.11352539 C-6.35791016 2.45352539 -6.35791016 1.79352539 -6.35791016 1.11352539 C-4.00590956 -0.06247491 -2.62056615 -0.00732002 0 0 Z " fill="#21226D" transform="translate(65.35791015625,216.886474609375)"/>
<path d="M0 0 C2.31 0.33 4.62 0.66 7 1 C7.12375 2.11375 7.12375 2.11375 7.25 3.25 C8.1396946 6.51221354 9.48503749 7.80954878 12 10 C5.5 13 5.5 13 1 13 C1 12.34 1 11.68 1 11 C0.01 11 -0.98 11 -2 11 C-1.855625 10.29875 -1.71125 9.5975 -1.5625 8.875 C-0.98521625 5.92443859 -0.48304859 2.96729849 0 0 Z " fill="#1E1F79" transform="translate(155,282)"/>
<path d="M0 0 C0.33 0 0.66 0 1 0 C3.29342747 5.89738492 4.34548714 10.66606918 4 17 C-3.4266095 14.73972754 -7.80492391 9.57137939 -13 4 C-10.15321219 4 -7.77480587 4.43080905 -5 5 C-4.34 5 -3.68 5 -3 5 C-2.01 6.485 -2.01 6.485 -1 8 C-0.34 7.67 0.32 7.34 1 7 C0.67 6.67 0.34 6.34 0 6 C-0.04080783 4.00041636 -0.04254356 1.99954746 0 0 Z " fill="#91F33A" transform="translate(449,253)"/>
<path d="M0 0 C1.21236328 0.01353516 1.21236328 0.01353516 2.44921875 0.02734375 C3.37154297 0.04474609 3.37154297 0.04474609 4.3125 0.0625 C4.3125 0.7225 4.3125 1.3825 4.3125 2.0625 C-0.3075 2.7225 -4.9275 3.3825 -9.6875 4.0625 C-9.6875 4.7225 -9.6875 5.3825 -9.6875 6.0625 C-10.6775 6.0625 -11.6675 6.0625 -12.6875 6.0625 C-12.6875 7.0525 -12.6875 8.0425 -12.6875 9.0625 C-13.3475 9.0625 -14.0075 9.0625 -14.6875 9.0625 C-16.3125 7.0625 -16.3125 7.0625 -17.6875 5.0625 C-18.8321875 6.0525 -18.8321875 6.0525 -20 7.0625 C-22.6875 9.0625 -22.6875 9.0625 -25.6875 9.0625 C-25.6875 10.0525 -25.6875 11.0425 -25.6875 12.0625 C-26.3475 12.0625 -27.0075 12.0625 -27.6875 12.0625 C-27.2107419 7.77167714 -24.92522992 5.73714645 -21.6875 3.0625 C-19.34780083 2.11790096 -17.16996989 1.59793468 -14.6875 1.0625 C-14.0275 2.0525 -13.3675 3.0425 -12.6875 4.0625 C-11.5428125 3.3509375 -11.5428125 3.3509375 -10.375 2.625 C-6.74113402 0.51228722 -4.13022272 -0.0598583 0 0 Z " fill="#43BBA6" transform="translate(394.6875,237.9375)"/>
<path d="M0 0 C2.625 0.9375 2.625 0.9375 5 2 C4 5 4 5 3 6 C3.99 6 4.98 6 6 6 C6 8.31 6 10.62 6 13 C5.21625 13.144375 4.4325 13.28875 3.625 13.4375 C1.03578982 13.87798925 1.03578982 13.87798925 -1 15 C-0.67 13.68 -0.34 12.36 0 11 C-1.32 10.34 -2.64 9.68 -4 9 C-3.67 8.34 -3.34 7.68 -3 7 C-3.99 6.34 -4.98 5.68 -6 5 C-4.68 4.34 -3.36 3.68 -2 3 C-2 2.34 -2 1.68 -2 1 C-1.34 0.67 -0.68 0.34 0 0 Z " fill="#274F92" transform="translate(290,246)"/>
<path d="M0 0 C0.33 0.99 0.66 1.98 1 3 C-5.6 3.33 -12.2 3.66 -19 4 C-17.29532084 7.29300666 -17.29532084 7.29300666 -13.9609375 7.73046875 C-12.18589844 7.95669922 -12.18589844 7.95669922 -10.375 8.1875 C-9.18648438 8.34605469 -7.99796875 8.50460937 -6.7734375 8.66796875 C-5.85820312 8.77753906 -4.94296875 8.88710938 -4 9 C-3.67 8.34 -3.34 7.68 -3 7 C-3 8.32 -3 9.64 -3 11 C-5.77553371 10.79896134 -8.5416482 10.56561742 -11.3125 10.3125 C-12.49102539 10.23225586 -12.49102539 10.23225586 -13.69335938 10.15039062 C-19.50368731 9.58172023 -19.50368731 9.58172023 -22.04296875 6.60546875 C-23 4 -23 4 -23 1 C-15.41 0.67 -7.82 0.34 0 0 Z " fill="#445386" transform="translate(284,270)"/>
<path d="M0 0 C1.37478516 0.01740234 1.37478516 0.01740234 2.77734375 0.03515625 C3.69644531 0.04417969 4.61554688 0.05320313 5.5625 0.0625 C6.27277344 0.07410156 6.98304688 0.08570313 7.71484375 0.09765625 C7.71484375 0.42765625 7.71484375 0.75765625 7.71484375 1.09765625 C4.74484375 1.09765625 1.77484375 1.09765625 -1.28515625 1.09765625 C-1.19234375 1.88269531 -1.09953125 2.66773438 -1.00390625 3.4765625 C-0.42131538 11.95534036 -0.42131538 11.95534036 -3.06640625 15.453125 C-5.06835593 17.16253626 -7.06292246 18.68891876 -9.28515625 20.09765625 C-9.94515625 19.76765625 -10.60515625 19.43765625 -11.28515625 19.09765625 C-11.28515625 18.10765625 -11.28515625 17.11765625 -11.28515625 16.09765625 C-10.29515625 16.09765625 -9.30515625 16.09765625 -8.28515625 16.09765625 C-8.94515625 14.11765625 -9.60515625 12.13765625 -10.28515625 10.09765625 C-7.27483881 9.1634198 -6.41865357 9.05315714 -3.28515625 10.09765625 C-3.29675781 9.45957031 -3.30835938 8.82148438 -3.3203125 8.1640625 C-3.32933594 7.33777344 -3.33835937 6.51148438 -3.34765625 5.66015625 C-3.35925781 4.83644531 -3.37085938 4.01273438 -3.3828125 3.1640625 C-3.24381204 0.22281267 -2.9444484 0.12583113 0 0 Z " fill="#40A8A7" transform="translate(322.28515625,230.90234375)"/>
<path d="M0 0 C4.98043609 -0.07461471 9.96054089 -0.12881987 14.94140625 -0.16479492 C16.63287022 -0.17980505 18.32429578 -0.20021963 20.015625 -0.22631836 C22.45843024 -0.26304686 24.9007173 -0.27980411 27.34375 -0.29296875 C28.46299866 -0.31619453 28.46299866 -0.31619453 29.6048584 -0.33988953 C35.01753823 -0.34159263 39.0226028 0.86788371 44 3 C43.01 3.99 42.02 4.98 41 6 C40.13375 5.690625 39.2675 5.38125 38.375 5.0625 C32.42986735 3.32696438 26.14860618 3.32405969 20 3 C20 2.67 20 2.34 20 2 C13.4 1.67 6.8 1.34 0 1 C0 0.67 0 0.34 0 0 Z " fill="#75D9CD" transform="translate(304,216)"/>
<path d="M0 0 C0.33 0 0.66 0 1 0 C1.33 10.89 1.66 21.78 2 33 C-2.95 33.33 -7.9 33.66 -13 34 C-13 32.35 -13 30.7 -13 29 C-13.99 29.33 -14.98 29.66 -16 30 C-15.505 28.515 -15.505 28.515 -15 27 C-13.40494792 27.74869792 -11.80989583 28.49739583 -10.21484375 29.24609375 C-7.27037024 30.32460821 -7.27037024 30.32460821 -1 31 C-0.67 20.77 -0.34 10.54 0 0 Z " fill="#202362" transform="translate(183,260)"/>
<path d="M0 0 C0.33 0 0.66 0 1 0 C1.33 2.97 1.66 5.94 2 9 C1.01 8.67 0.02 8.34 -1 8 C-1.33 9.98 -1.66 11.96 -2 14 C-1.67 14 -1.34 14 -1 14 C-0.86722656 14.68707031 -0.73445313 15.37414062 -0.59765625 16.08203125 C-0.42105469 16.98308594 -0.24445313 17.88414062 -0.0625 18.8125 C0.11152344 19.70582031 0.28554688 20.59914063 0.46484375 21.51953125 C0.97741153 24.11397171 0.97741153 24.11397171 2 27 C-2 27 -2 27 -4 26 C-4.08086376 23.06195004 -4.1404283 20.12611925 -4.1875 17.1875 C-4.21263672 16.35412109 -4.23777344 15.52074219 -4.26367188 14.66210938 C-4.27333984 13.85966797 -4.28300781 13.05722656 -4.29296875 12.23046875 C-4.3086792 11.49207764 -4.32438965 10.75368652 -4.34057617 9.99291992 C-3.90709353 7.45634733 -2.85781682 6.71026243 -1 5 C-0.27802838 2.39388923 -0.27802838 2.39388923 0 0 Z " fill="#43A9A8" transform="translate(342,237)"/>
<path d="M0 0 C5.47826087 -0.36521739 5.47826087 -0.36521739 7.875 1.3125 C9 3 9 3 9 6 C8.34 6 7.68 6 7 6 C7 6.66 7 7.32 7 8 C7.99 8 8.98 8 10 8 C10 8.66 10 9.32 10 10 C8.22773547 9.71715982 6.457212 9.42339502 4.6875 9.125 C3.70136719 8.96257812 2.71523437 8.80015625 1.69921875 8.6328125 C-1 8 -1 8 -4 6 C-2.02 6 -0.04 6 2 6 C1.01 5.01 0.02 4.02 -1 3 C-0.67 2.01 -0.34 1.02 0 0 Z " fill="#2D2B81" transform="translate(146,285)"/>
<path d="M0 0 C0.99 0.33 1.98 0.66 3 1 C2.35957305 5.61107405 2.35957305 5.61107405 0.46875 7.65625 C-1.66649395 11.06355417 -1.32130336 14.36627173 -1.1875 18.25 C-1.17396484 18.99507813 -1.16042969 19.74015625 -1.14648438 20.5078125 C-1.11127204 22.33885416 -1.05746851 24.16952169 -1 26 C-4.12741868 22.87258132 -4.16696122 19.60975673 -4.25 15.3125 C-4.21410755 10.47419735 -3.62696934 3.62696934 0 0 Z " fill="#566494" transform="translate(250,252)"/>
<path d="M0 0 C0.99 0 1.98 0 3 0 C3 4.62 3 9.24 3 14 C1.68 14 0.36 14 -1 14 C-1 15.98 -1 17.96 -1 20 C-2.32 19.67 -3.64 19.34 -5 19 C-5 17.35 -5 15.7 -5 14 C-6.65 13.67 -8.3 13.34 -10 13 C-6.25 11.875 -6.25 11.875 -4 13 C-4 13.66 -4 14.32 -4 15 C-3.34 15 -2.68 15 -2 15 C-2 14.01 -2 13.02 -2 12 C-1.01 12 -0.02 12 1 12 C0.67 8.04 0.34 4.08 0 0 Z " fill="#4E5388" transform="translate(220,248)"/>
<path d="M0 0 C0.33 0 0.66 0 1 0 C1 12.54 1 25.08 1 38 C0.34 37.67 -0.32 37.34 -1 37 C-2.12840923 32.45652225 -1.98643567 28.27749603 -1.66015625 23.6328125 C-1.61434921 22.95322479 -1.56854218 22.27363708 -1.52134705 21.57345581 C-1.37493292 19.42345964 -1.21887786 17.27429207 -1.0625 15.125 C-0.96094833 13.65889837 -0.86003053 12.19275269 -0.75976562 10.7265625 C-0.51383765 7.1505029 -0.25926445 3.57512032 0 0 Z " fill="#6B7FAB" transform="translate(242,212)"/>
<path d="M0 0 C3.3 0.33 6.6 0.66 10 1 C10 1.66 10 2.32 10 3 C15.94 3.99 15.94 3.99 22 5 C17.43988636 7.28005682 14.77551821 7.15745611 10 6 C6.60283021 4.80469952 3.29503893 3.45170773 0 2 C0 1.34 0 0.68 0 0 Z " fill="#424489" transform="translate(198,288)"/>
<path d="M0 0 C0.66 0 1.32 0 2 0 C2.33 5.94 2.66 11.88 3 18 C6.63 18.33 10.26 18.66 14 19 C14 19.33 14 19.66 14 20 C10.37 20 6.74 20 3 20 C3 20.66 3 21.32 3 22 C2.01 21.67 1.02 21.34 0 21 C0 14.07 0 7.14 0 0 Z " fill="#1E939B" transform="translate(365,272)"/>
<path d="M0 0 C2 2 2 2 2 5 C2.55300781 5.21914062 3.10601562 5.43828125 3.67578125 5.6640625 C6.77398766 7.4448803 8.78945284 9.73254331 11.1875 12.375 C12.06792969 13.33148438 12.94835937 14.28796875 13.85546875 15.2734375 C15.76968005 17.70717063 16.63619514 18.98969315 17 22 C16.34 22.33 15.68 22.66 15 23 C15 21.68 15 20.36 15 19 C14.01 19 13.02 19 12 19 C12 18.01 12 17.02 12 16 C11.01 16.33 10.02 16.66 9 17 C5.125 11.375 5.125 11.375 4 8 C3.319375 7.360625 2.63875 6.72125 1.9375 6.0625 C0 4 0 4 0 0 Z " fill="#25D180" transform="translate(428,246)"/>
<path d="M0 0 C0.33 1.32 0.66 2.64 1 4 C0.01 4.33 -0.98 4.66 -2 5 C-2.33 5.99 -2.66 6.98 -3 8 C-5.06640625 9.82421875 -5.06640625 9.82421875 -7.5625 11.6875 C-8.38878906 12.31011719 -9.21507812 12.93273437 -10.06640625 13.57421875 C-10.70449219 14.04472656 -11.34257812 14.51523437 -12 15 C-12.33 14.34 -12.66 13.68 -13 13 C-13.66 12.67 -14.32 12.34 -15 12 C-14.25234375 11.46890625 -13.5046875 10.9378125 -12.734375 10.390625 C-11.74953125 9.68421875 -10.7646875 8.9778125 -9.75 8.25 C-8.77546875 7.55390625 -7.8009375 6.8578125 -6.796875 6.140625 C-4.30766704 4.23547701 -2.15028061 2.27315379 0 0 Z " fill="#466C92" transform="translate(322,245)"/>
<path d="M0 0 C1.32 0 2.64 0 4 0 C5.10166308 4.62698494 5.11077902 7.67792868 3 12 C0.09299153 13.406617 -0.87722005 13.04092665 -4 12 C-3.67 11.34 -3.34 10.68 -3 10 C-2.01 10.33 -1.02 10.66 0 11 C0 7.37 0 3.74 0 0 Z " fill="#454978" transform="translate(215,237)"/>
<path d="M0 0 C-2.91765 1.9451 -4.62537285 2.45276317 -8 3 C-8 3.66 -8 4.32 -8 5 C-9.98 5 -11.96 5 -14 5 C-14.66 6.32 -15.32 7.64 -16 9 C-16 8.01 -16 7.02 -16 6 C-16.99 6 -17.98 6 -19 6 C-19 5.01 -19 4.02 -19 3 C-20.32 2.67 -21.64 2.34 -23 2 C-21.35 2 -19.7 2 -18 2 C-17.67 2.66 -17.34 3.32 -17 4 C-15.906875 3.525625 -14.81375 3.05125 -13.6875 2.5625 C-8.92718784 0.49670416 -5.23645936 -0.09880112 0 0 Z " fill="#5E5D98" transform="translate(133,238)"/>
<path d="M0 0 C0.33 0 0.66 0 1 0 C1 14.52 1 29.04 1 44 C-2 40 -2 40 -2 36 C-1.34 36 -0.68 36 0 36 C0 24.12 0 12.24 0 0 Z " fill="#1F1C6A" transform="translate(83,232)"/>
<path d="M0 0 C2.30142435 1.78174788 3.80034391 3.16304165 4.48828125 6.046875 C4.72323102 8.0246611 4.86751458 10.01271872 5 12 C3.02 13.32 1.04 14.64 -1 16 C-1.33 15.01 -1.66 14.02 -2 13 C-1.01 12.67 -0.02 12.34 1 12 C0.814375 11.071875 0.62875 10.14375 0.4375 9.1875 C0 6 0 6 1 3 C0.01 3 -0.98 3 -2 3 C-1 1 -1 1 0 0 Z " fill="#4B648F" transform="translate(295,249)"/>
<path d="M0 0 C0.33 0 0.66 0 1 0 C1 4.95 1 9.9 1 15 C-8.75 16 -8.75 16 -11 16 C-10.67 14.68 -10.34 13.36 -10 12 C-7.03 12.33 -4.06 12.66 -1 13 C-0.67 8.71 -0.34 4.42 0 0 Z " fill="#3F4078" transform="translate(134,239)"/>
<path d="M0 0 C0.66 0 1.32 0 2 0 C2 0.99 2 1.98 2 3 C2.99 3 3.98 3 5 3 C5 2.34 5 1.68 5 1 C6.32 1 7.64 1 9 1 C9 6.28 9 11.56 9 17 C8.67 17 8.34 17 8 17 C7.67 13.37 7.34 9.74 7 6 C6.01 5.67 5.02 5.34 4 5 C3.01 5.495 3.01 5.495 2 6 C0 4 0 4 -1 1 C-0.67 0.67 -0.34 0.34 0 0 Z " fill="#263174" transform="translate(199,239)"/>
<path d="M0 0 C0.99 0 1.98 0 3 0 C3 10.89 3 21.78 3 33 C1.68 32.34 0.36 31.68 -1 31 C-0.01 30.67 0.98 30.34 2 30 C1.91621094 28.82824219 1.83242188 27.65648437 1.74609375 26.44921875 C1.17445047 17.85719155 0.77359005 9.5660018 2 1 C1.34 0.67 0.68 0.34 0 0 Z " fill="#406386" transform="translate(333,237)"/>
<path d="M0 0 C0.66 0.66 1.32 1.32 2 2 C1.60495559 4.9628331 0.40182371 7.38326241 -1 10 C-1.99 9.67 -2.98 9.34 -4 9 C-4 8.34 -4 7.68 -4 7 C-5.65 7 -7.3 7 -9 7 C-6.03716687 4.61327331 -3.05729491 2.2646629 0 0 Z " fill="#446B9A" transform="translate(332,238)"/>
<path d="M0 0 C0.33 0.66 0.66 1.32 1 2 C-3.29 2 -7.58 2 -12 2 C-12.33 2.66 -12.66 3.32 -13 4 C-13.66 4 -14.32 4 -15 4 C-15.66 5.32 -16.32 6.64 -17 8 C-17.33 7.01 -17.66 6.02 -18 5 C-19.32 5.33 -20.64 5.66 -22 6 C-22 5.34 -22 4.68 -22 4 C-14.48666996 1.1082716 -8.07613852 -0.64323227 0 0 Z " fill="#627A9C" transform="translate(279,238)"/>
<path d="M0 0 C1.9375 0.1875 1.9375 0.1875 4 1 C5.25 3.0625 5.25 3.0625 6 5 C3 4 3 4 1 3 C1.33 3.66 1.66 4.32 2 5 C2 6.32 2 7.64 2 9 C1.34 9.66 0.68 10.32 0 11 C-2.125 10.625 -2.125 10.625 -4 10 C-4.33 10.99 -4.66 11.98 -5 13 C-5 11.35 -5 9.7 -5 8 C-3.68 8 -2.36 8 -1 8 C-1.020625 6.865625 -1.04125 5.73125 -1.0625 4.5625 C-1 1 -1 1 0 0 Z " fill="#3D4888" transform="translate(198,237)"/>
<path d="M0 0 C1.21236328 0.01353516 1.21236328 0.01353516 2.44921875 0.02734375 C3.37154297 0.04474609 3.37154297 0.04474609 4.3125 0.0625 C4.3125 0.7225 4.3125 1.3825 4.3125 2.0625 C-0.3075 2.7225 -4.9275 3.3825 -9.6875 4.0625 C-9.6875 4.7225 -9.6875 5.3825 -9.6875 6.0625 C-11.3375 6.0625 -12.9875 6.0625 -14.6875 6.0625 C-15.0175 4.4125 -15.3475 2.7625 -15.6875 1.0625 C-14.6975 2.0525 -13.7075 3.0425 -12.6875 4.0625 C-11.924375 3.588125 -11.16125 3.11375 -10.375 2.625 C-6.74113402 0.51228722 -4.13022272 -0.0598583 0 0 Z " fill="#61C6AF" transform="translate(394.6875,237.9375)"/>
<path d="M0 0 C0.99 0 1.98 0 3 0 C3 2.97 3 5.94 3 9 C4.32 9.66 5.64 10.32 7 11 C7.66 11.66 8.32 12.32 9 13 C7.02 13.66 5.04 14.32 3 15 C2.67 14.34 2.34 13.68 2 13 C1.01 12.34 0.02 11.68 -1 11 C-0.34 10.34 0.32 9.68 1 9 C1.34216235 4.34805286 1.34216235 4.34805286 0 0 Z " fill="#1FA0AB" transform="translate(343,265)"/>
<path d="M0 0 C4.455 2.97 4.455 2.97 9 6 C8.50769231 14.36923077 8.50769231 14.36923077 5.9375 17.5625 C5.298125 18.036875 4.65875 18.51125 4 19 C4 17.68 4 16.36 4 15 C4.66 15 5.32 15 6 15 C6.35001013 10.96867562 6.35001013 10.96867562 6 7 C3.62597583 5.19212694 3.62597583 5.19212694 1 4 C0.67 2.68 0.34 1.36 0 0 Z " fill="#46CC9B" transform="translate(444,265)"/>
<path d="M0 0 C2 3 2 3 3.6875 6.0625 C6.5189901 9.65925769 8.58671813 10.15129195 13 11 C13 11.33 13 11.66 13 12 C9.7 12 6.4 12 3 12 C0.58314288 7.77050005 -0.34833144 4.87664009 0 0 Z " fill="#474A83" transform="translate(204,268)"/>
<path d="M0 0 C3.67230705 3.07999946 4.56802365 5.2482602 5 10 C3.35 10.33 1.7 10.66 0 11 C-1.28571429 3.57142857 -1.28571429 3.57142857 0 0 Z " fill="#3BC5A7" transform="translate(353,225)"/>
<path d="M0 0 C0.66 0 1.32 0 2 0 C2.33 0.99 2.66 1.98 3 3 C1.5625 5.1875 1.5625 5.1875 0 7 C1.29299694 9.88437779 2.65941363 11.87219421 5 14 C4.01 14.33 3.02 14.66 2 15 C2 14.34 2 13.68 2 13 C0.35 12.67 -1.3 12.34 -3 12 C-3 9.36 -3 6.72 -3 4 C-1.68 4 -0.36 4 1 4 C0.67 2.68 0.34 1.36 0 0 Z " fill="#45B2A9" transform="translate(353,245)"/>
<path d="M0 0 C0.5775 0.226875 1.155 0.45375 1.75 0.6875 C1.75 2.6875 1.75 4.6875 1.75 6.6875 C0.76 7.1825 0.76 7.1825 -0.25 7.6875 C-0.25 7.0275 -0.25 6.3675 -0.25 5.6875 C-4.39093698 5.47779441 -4.39093698 5.47779441 -8.25 6.6875 C-6.65594781 2.8352072 -4.57967475 -0.63606594 0 0 Z " fill="#3A3A8D" transform="translate(110.25,241.3125)"/>
<path d="M0 0 C0.99 0 1.98 0 3 0 C3 2.97 3 5.94 3 9 C4.65 9 6.3 9 8 9 C7.01 9.66 6.02 10.32 5 11 C4.67 11.66 4.34 12.32 4 13 C3.34 13 2.68 13 2 13 C2 11.68 2 10.36 2 9 C1.34 9 0.68 9 0 9 C0 6.03 0 3.06 0 0 Z " fill="#425682" transform="translate(234,203)"/>
<path d="M0 0 C-0.0625 2.25 -0.0625 2.25 -1 5 C-3.13159211 6.80624384 -5.33518475 8.15034876 -8 9 C-10.23046875 8.6015625 -10.23046875 8.6015625 -12 8 C-10.37982158 6.66081194 -8.75370657 5.3288031 -7.125 4 C-6.22007812 3.2575 -5.31515625 2.515 -4.3828125 1.75 C-2 0 -2 0 0 0 Z " fill="#3B7699" transform="translate(320,272)"/>
<path d="M0 0 C0.99 0.495 0.99 0.495 2 1 C2 3.97 2 6.94 2 10 C3.32 9.34 4.64 8.68 6 8 C7 9 7 9 7.0625 11.5625 C7.041875 12.366875 7.02125 13.17125 7 14 C6.34 14 5.68 14 5 14 C5 13.34 5 12.68 5 12 C3.35 11.67 1.7 11.34 0 11 C0 7.37 0 3.74 0 0 Z " fill="#242D70" transform="translate(211,249)"/>
<path d="M0 0 C0.33 0.99 0.66 1.98 1 3 C0.01 3 -0.98 3 -2 3 C-2.1546875 3.8971875 -2.1546875 3.8971875 -2.3125 4.8125 C-3.10494321 7.33391022 -4.11943508 8.19465768 -6 10 C-7.17574711 12.09989652 -7.17574711 12.09989652 -8 14 C-8.99 13.67 -9.98 13.34 -11 13 C-10.34 12.67 -9.68 12.34 -9 12 C-8.731875 11.278125 -8.46375 10.55625 -8.1875 9.8125 C-6.50323251 5.82344541 -3.96888661 1.98444331 0 0 Z " fill="#56C1AC" transform="translate(411,243)"/>
<path d="M0 0 C0.99 0.33 1.98 0.66 3 1 C3 1.99 3 2.98 3 4 C-2.17578125 7.22265625 -2.17578125 7.22265625 -4 8 C-4.99 7.67 -5.98 7.34 -7 7 C-6.34 7 -5.68 7 -5 7 C-5.33 6.01 -5.66 5.02 -6 4 C-4.68 3.67 -3.36 3.34 -2 3 C-2 2.34 -2 1.68 -2 1 C-1.34 0.67 -0.68 0.34 0 0 Z " fill="#4A5A90" transform="translate(292,285)"/>
<path d="M0 0 C0.52078125 0.63421875 1.0415625 1.2684375 1.578125 1.921875 C4.63986303 4.54904376 6.77781807 4.77333817 10.75 5.25 C12.50570313 5.47429687 12.50570313 5.47429687 14.296875 5.703125 C15.18890625 5.80109375 16.0809375 5.8990625 17 6 C17.33 5.34 17.66 4.68 18 4 C18 5.32 18 6.64 18 8 C15.18683642 7.69272975 12.37457481 7.37944848 9.5625 7.0625 C8.35883789 6.93198242 8.35883789 6.93198242 7.13085938 6.79882812 C1.11328125 6.11328125 1.11328125 6.11328125 0 5 C-0.04063832 3.33382885 -0.042721 1.66611905 0 0 Z " fill="#525C8B" transform="translate(263,273)"/>
<path d="M0 0 C1.32 0.66 2.64 1.32 4 2 C1.25 7.875 1.25 7.875 -1 9 C-2.5625 7.75 -2.5625 7.75 -4 6 C-3.6875 3.8125 -3.6875 3.8125 -3 2 C-3 2.66 -3 3.32 -3 4 C-2.34 4 -1.68 4 -1 4 C-0.67 2.68 -0.34 1.36 0 0 Z " fill="#233384" transform="translate(253,272)"/>
<path d="M0 0 C6.27 0 12.54 0 19 0 C19 0.33 19 0.66 19 1 C14.05 1.33 9.1 1.66 4 2 C3.01 4.31 2.02 6.62 1 9 C0.67 9 0.34 9 0 9 C0 6.03 0 3.06 0 0 Z " fill="#20A8A1" transform="translate(305,218)"/>
<path d="M0 0 C0.33 0 0.66 0 1 0 C1 4.95 1 9.9 1 15 C-2.3 15 -5.6 15 -9 15 C-9 14.67 -9 14.34 -9 14 C-5.535 13.505 -5.535 13.505 -2 13 C-1.93941406 12.22914063 -1.87882812 11.45828125 -1.81640625 10.6640625 C-1.73261719 9.66117188 -1.64882812 8.65828125 -1.5625 7.625 C-1.48128906 6.62726563 -1.40007812 5.62953125 -1.31640625 4.6015625 C-1 2 -1 2 0 0 Z " fill="#3D3F79" transform="translate(106,217)"/>
<path d="M0 0 C3.96 0 7.92 0 12 0 C11.67 0.99 11.34 1.98 11 3 C8.69 2.67 6.38 2.34 4 2 C4 3.65 4 5.3 4 7 C3.01 6.67 2.02 6.34 1 6 C1 5.34 1 4.68 1 4 C0.34 4 -0.32 4 -1 4 C-0.67 2.68 -0.34 1.36 0 0 Z " fill="#383A86" transform="translate(151,280)"/>
<path d="M0 0 C1.07765625 0.00902344 2.1553125 0.01804688 3.265625 0.02734375 C4.08546875 0.03894531 4.9053125 0.05054688 5.75 0.0625 C5.75 0.3925 5.75 0.7225 5.75 1.0625 C2.78 1.0625 -0.19 1.0625 -3.25 1.0625 C-3.25 1.7225 -3.25 2.3825 -3.25 3.0625 C-4.57 3.0625 -5.89 3.0625 -7.25 3.0625 C-7.58 3.7225 -7.91 4.3825 -8.25 5.0625 C-10.23 4.4025 -12.21 3.7425 -14.25 3.0625 C-9.38131361 0.45427515 -5.52570674 -0.06006203 0 0 Z " fill="#6B73A7" transform="translate(159.25,237.9375)"/>
<path d="M0 0 C3.53599998 0.07072 6.1041863 0.19163015 8.80078125 2.625 C10.27675028 4.37220916 11.67266996 6.13784833 13 8 C11.0625 7.6875 11.0625 7.6875 9 7 C8.67 6.01 8.34 5.02 8 4 C5.69 3.67 3.38 3.34 1 3 C0.67 2.01 0.34 1.02 0 0 Z " fill="#5B7199" transform="translate(282,240)"/>
<path d="M0 0 C3.48746762 0.0827319 6.82471633 0.50244327 10.25 1.1875 C5.82595232 4.01889051 1.33006077 3.5415529 -3.6875 2.6875 C-4.368125 2.5225 -5.04875 2.3575 -5.75 2.1875 C-3.75 0.1875 -3.75 0.1875 0 0 Z " fill="#5B6195" transform="translate(272.75,291.8125)"/>
<path d="M0 0 C0.99 0.33 1.98 0.66 3 1 C3 1.66 3 2.32 3 3 C5.97 3 8.94 3 12 3 C12 3.33 12 3.66 12 4 C7.38 4.66 2.76 5.32 -2 6 C-1 1 -1 1 0 0 Z " fill="#212668" transform="translate(229,288)"/>
<path d="M0 0 C4.29 0.33 8.58 0.66 13 1 C11.68 2.32 10.36 3.64 9 5 C9.99 5.33 10.98 5.66 12 6 C10.02 6.99 10.02 6.99 8 8 C7.4465236 5.92446352 7 4.15634036 7 2 C4.69 1.67 2.38 1.34 0 1 C0 0.67 0 0.34 0 0 Z " fill="#263682" transform="translate(265,279)"/>
<path d="M0 0 C1.32 0 2.64 0 4 0 C4 0.66 4 1.32 4 2 C3.01 2.495 3.01 2.495 2 3 C-0.00153469 6.17890804 -0.4971641 9.31253672 -1 13 C-1.33 13 -1.66 13 -2 13 C-2 11.02 -2 9.04 -2 7 C-2.66 7 -3.32 7 -4 7 C-4 6.01 -4 5.02 -4 4 C-3.01 3.67 -2.02 3.34 -1 3 C-0.67 2.01 -0.34 1.02 0 0 Z " fill="#46B6A5" transform="translate(382,256)"/>
<path d="M0 0 C3 1 3 1 5 3 C4.60467975 5.45098556 3.78698574 7.63904279 3 10 C2.01 9.67 1.02 9.34 0 9 C0 6.03 0 3.06 0 0 Z " fill="#2F418E" transform="translate(177,244)"/>
<path d="M0 0 C2.6875 0.3125 2.6875 0.3125 5 1 C4 4 4 4 2.29296875 4.984375 C1.59816406 5.23703125 0.90335938 5.4896875 0.1875 5.75 C-0.49957031 6.01296875 -1.18664062 6.2759375 -1.89453125 6.546875 C-4.28143969 7.06056958 -5.70637773 6.76282269 -8 6 C-7.67 5.34 -7.34 4.68 -7 4 C-6.38125 3.855625 -5.7625 3.71125 -5.125 3.5625 C-2.893188 3.18187645 -2.893188 3.18187645 -1.5625 1.375 C-0.7890625 0.694375 -0.7890625 0.694375 0 0 Z " fill="#3E428E" transform="translate(151,249)"/>
<path d="M0 0 C0.33 0 0.66 0 1 0 C1.33 4.62 1.66 9.24 2 14 C1.01 14 0.02 14 -1 14 C-1.94602608 10.9148254 -2.01578237 8.50740993 -1.625 5.3125 C-1.53476563 4.52488281 -1.44453125 3.73726563 -1.3515625 2.92578125 C-1 1 -1 1 0 0 Z " fill="#4A4884" transform="translate(135,269)"/>
<path d="M0 0 C1.65 0.33 3.3 0.66 5 1 C4.67 1.99 4.34 2.98 4 4 C3.34 4 2.68 4 2 4 C1.67 4.99 1.34 5.98 1 7 C-1.0625 7.6875 -1.0625 7.6875 -3 8 C-3 7.34 -3 6.68 -3 6 C-2.01 6 -1.02 6 0 6 C-0.99 5.34 -1.98 4.68 -3 4 C-2.01 2.68 -1.02 1.36 0 0 Z " fill="#4A6997" transform="translate(318,264)"/>
<path d="M0 0 C0.33 0.66 0.66 1.32 1 2 C1.66 2.33 2.32 2.66 3 3 C2.34 4.32 1.68 5.64 1 7 C1.78375 6.79375 2.5675 6.5875 3.375 6.375 C4.674375 6.189375 4.674375 6.189375 6 6 C6.66 6.66 7.32 7.32 8 8 C3.545 8.495 3.545 8.495 -1 9 C-1.09765625 2.84765625 -1.09765625 2.84765625 -1 1 C-0.67 0.67 -0.34 0.34 0 0 Z " fill="#277694" transform="translate(305,284)"/>
<path d="M0 0 C0.66 0 1.32 0 2 0 C2.33 2.31 2.66 4.62 3 7 C1.35 7.33 -0.3 7.66 -2 8 C-2.66 7.01 -3.32 6.02 -4 5 C-2.71937515 3.2925002 -1.38232443 1.62626404 0 0 Z " fill="#365F95" transform="translate(325,257)"/>
<path d="M0 0 C1.98 0 3.96 0 6 0 C6 1.65 6 3.3 6 5 C5.67 4.34 5.34 3.68 5 3 C4.01 3 3.02 3 2 3 C1.34 4.32 0.68 5.64 0 7 C-0.99 6.67 -1.98 6.34 -3 6 C-2.67 5.01 -2.34 4.02 -2 3 C-1.34 3 -0.68 3 0 3 C0 2.01 0 1.02 0 0 Z " fill="#232F79" transform="translate(194,247)"/>
<path d="M0 0 C0 4.62 0 9.24 0 14 C-0.33 14 -0.66 14 -1 14 C-1.66 10.37 -2.32 6.74 -3 3 C-5.31 2.67 -7.62 2.34 -10 2 C-10 1.67 -10 1.34 -10 1 C-8.5209084 0.83266843 -7.04172444 0.66615314 -5.5625 0.5 C-4.32693359 0.36078125 -4.32693359 0.36078125 -3.06640625 0.21875 C-1 0 -1 0 0 0 Z " fill="#2DBE98" transform="translate(400,239)"/>
<path d="M0 0 C0.66 0 1.32 0 2 0 C2 0.66 2 1.32 2 2 C2.99 2 3.98 2 5 2 C5 2.66 5 3.32 5 4 C5.66 4 6.32 4 7 4 C7 4.66 7 5.32 7 6 C7.66 6.33 8.32 6.66 9 7 C4.48521602 6.46884894 1.65333143 4.63379708 -2 2 C-1.34 1.34 -0.68 0.68 0 0 Z " fill="#5D659A" transform="translate(257,286)"/>
<path d="M0 0 C0.33 0.66 0.66 1.32 1 2 C0.11810614 4.54045561 -0.65265981 5.75903274 -2.875 7.30078125 C-3.57625 7.63464844 -4.2775 7.96851563 -5 8.3125 C-5.70125 8.65925781 -6.4025 9.00601562 -7.125 9.36328125 C-8.053125 9.67845703 -8.053125 9.67845703 -9 10 C-9.66 9.67 -10.32 9.34 -11 9 C-9.93458984 8.15115234 -9.93458984 8.15115234 -8.84765625 7.28515625 C-7.92855469 6.55167969 -7.00945312 5.81820313 -6.0625 5.0625 C-5.14597656 4.33160156 -4.22945313 3.60070312 -3.28515625 2.84765625 C-1.59148731 1.48061289 -1.59148731 1.48061289 0 0 Z " fill="#5E729A" transform="translate(297,265)"/>
<path d="M0 0 C0.33 0 0.66 0 1 0 C1.66 2.31 2.32 4.62 3 7 C2 8 2 8 -0.5625 8.0625 C-1.366875 8.041875 -2.17125 8.02125 -3 8 C-1.125 1.125 -1.125 1.125 0 0 Z " fill="#4F4E87" transform="translate(48,224)"/>
<path d="M0 0 C0.33 0 0.66 0 1 0 C1.02505615 0.55985596 1.0501123 1.11971191 1.07592773 1.6965332 C1.19203745 4.23541305 1.3146958 6.77393553 1.4375 9.3125 C1.47681641 10.19357422 1.51613281 11.07464844 1.55664062 11.98242188 C1.59853516 12.82998047 1.64042969 13.67753906 1.68359375 14.55078125 C1.72025146 15.33106689 1.75690918 16.11135254 1.79467773 16.9152832 C1.94125263 19.19329101 1.94125263 19.19329101 3 22 C2.01 21.67 1.02 21.34 0 21 C0 14.07 0 7.14 0 0 Z " fill="#359096" transform="translate(365,272)"/>
<path d="M0 0 C2.64 0.99 5.28 1.98 8 3 C8 3.99 8 4.98 8 6 C6.35 6.33 4.7 6.66 3 7 C3 5.35 3 3.7 3 2 C2.01 2.33 1.02 2.66 0 3 C0 2.01 0 1.02 0 0 Z " fill="#1B1D6F" transform="translate(167,287)"/>
<path d="M0 0 C0.33 0.66 0.66 1.32 1 2 C2.65 2 4.3 2 6 2 C6.33 2.66 6.66 3.32 7 4 C0.25 5.125 0.25 5.125 -2 4 C-2 3.34 -2 2.68 -2 2 C-2.66 1.67 -3.32 1.34 -4 1 C-2.68 0.67 -1.36 0.34 0 0 Z " fill="#242F7E" transform="translate(266,288)"/>
<path d="M0 0 C-2.68841859 2.25245881 -4.64641875 3.88213958 -8 5 C-8.33 4.01 -8.66 3.02 -9 2 C-8.67 1.34 -8.34 0.68 -8 0 C-2.55072464 -1.27536232 -2.55072464 -1.27536232 0 0 Z " fill="#1B1E7A" transform="translate(171,280)"/>
<path d="M0 0 C1.32 1.65 2.64 3.3 4 5 C3.01 6.485 3.01 6.485 2 8 C1.401875 7.38125 0.80375 6.7625 0.1875 6.125 C-2.00811144 3.86323046 -2.00811144 3.86323046 -5 2 C-3.35 1.34 -1.7 0.68 0 0 Z " fill="#454B8A" transform="translate(166,250)"/>
<path d="M0 0 C2.625 0.9375 2.625 0.9375 5 2 C5 2.66 5 3.32 5 4 C3.02 4.33 1.04 4.66 -1 5 C-1.33 3.68 -1.66 2.36 -2 1 C-1.34 0.67 -0.68 0.34 0 0 Z " fill="#2A97A2" transform="translate(307,248)"/>
<path d="M0 0 C0.66 1.32 1.32 2.64 2 4 C-0.475 5.485 -0.475 5.485 -3 7 C-3.99 6.34 -4.98 5.68 -6 5 C-5.01 4.67 -4.02 4.34 -3 4 C-2.67 3.01 -2.34 2.02 -2 1 C-1.34 0.67 -0.68 0.34 0 0 Z " fill="#18C0A4" transform="translate(377,242)"/>
<path d="M0 0 C3.71599191 -0.20086443 4.77208445 -0.1519437 8 2 C8 2.66 8 3.32 8 4 C8.66 4.33 9.32 4.66 10 5 C4.5388601 4.64766839 4.5388601 4.64766839 2 4 C0.5 1.9375 0.5 1.9375 0 0 Z " fill="#1A1670" transform="translate(140,287)"/>
<path d="M0 0 C2.02350324 3.03525486 2.32124018 4.19426202 2.625 7.6875 C2.69976562 8.49574219 2.77453125 9.30398438 2.8515625 10.13671875 C2.90054687 10.75160156 2.94953125 11.36648438 3 12 C2.01 11.34 1.02 10.68 0 10 C-0.29296875 7.6171875 -0.29296875 7.6171875 -0.1875 4.875 C-0.16042969 3.96492188 -0.13335937 3.05484375 -0.10546875 2.1171875 C-0.07066406 1.41851562 -0.03585937 0.71984375 0 0 Z " fill="#55B6B0" transform="translate(359,262)"/>
<path d="M0 0 C0.33 0 0.66 0 1 0 C1.33 2.64 1.66 5.28 2 8 C2.66 7.34 3.32 6.68 4 6 C3.67 7.32 3.34 8.64 3 10 C-0.01031744 10.93423645 -0.86650268 11.04449911 -4 10 C-3.67 9.34 -3.34 8.68 -3 8 C-2.01 8.33 -1.02 8.66 0 9 C0 6.03 0 3.06 0 0 Z " fill="#5B6296" transform="translate(215,239)"/>
<path d="M0 0 C0.99 0.33 1.98 0.66 3 1 C3 1.66 3 2.32 3 3 C3.66 3.33 4.32 3.66 5 4 C4.67 5.32 4.34 6.64 4 8 C3.34 8 2.68 8 2 8 C0.3125 5.6875 0.3125 5.6875 -1 3 C-0.67 2.01 -0.34 1.02 0 0 Z " fill="#474889" transform="translate(138,242)"/>
<path d="M0 0 C1.32 0.33 2.64 0.66 4 1 C4 1.99 4 2.98 4 4 C5.65 4.33 7.3 4.66 9 5 C8.67 5.99 8.34 6.98 8 8 C1.42857143 4 1.42857143 4 0 0 Z " fill="#5BADB4" transform="translate(405,283)"/>
<path d="M0 0 C0.99 0.33 1.98 0.66 3 1 C2.67 4.63 2.34 8.26 2 12 C1.01 11.67 0.02 11.34 -1 11 C-0.67 7.37 -0.34 3.74 0 0 Z " fill="#222D83" transform="translate(201,257)"/>
<path d="M0 0 C0.556875 0.226875 1.11375 0.45375 1.6875 0.6875 C-0.67542656 3.21338702 -1.97712511 4.57570837 -5.3125 5.6875 C-5.3125 5.0275 -5.3125 4.3675 -5.3125 3.6875 C-5.9725 3.3575 -6.6325 3.0275 -7.3125 2.6875 C-2.88173077 -0.38942308 -2.88173077 -0.38942308 0 0 Z " fill="#3B5D90" transform="translate(314.3125,254.3125)"/>
<path d="M0 0 C0.33 0 0.66 0 1 0 C1.06058594 0.89203125 1.12117187 1.7840625 1.18359375 2.703125 C1.26738281 3.87359375 1.35117188 5.0440625 1.4375 6.25 C1.51871094 7.41015625 1.59992188 8.5703125 1.68359375 9.765625 C1.93247787 12.30977376 2.28114942 14.55953248 3 17 C2.01 17 1.02 17 0 17 C0 11.39 0 5.78 0 0 Z " fill="#303D75" transform="translate(226,243)"/>
<path d="M0 0 C0.99 0.33 1.98 0.66 3 1 C3 2.32 3 3.64 3 5 C3.99 5.33 4.98 5.66 6 6 C5.34 7.32 4.68 8.64 4 10 C2 7 2 7 2 5 C1.34 5 0.68 5 0 5 C0 3.35 0 1.7 0 0 Z " fill="#51548F" transform="translate(190,275)"/>
<path d="M0 0 C0 1.32 0 2.64 0 4 C0.66 4.33 1.32 4.66 2 5 C0.68 5 -0.64 5 -2 5 C-2 5.99 -2 6.98 -2 8 C-2.66 8 -3.32 8 -4 8 C-3.34 6.02 -2.68 4.04 -2 2 C-3.32 1.67 -4.64 1.34 -6 1 C-3.92446352 0.4465236 -2.15634036 0 0 0 Z " fill="#585B9B" transform="translate(171,270)"/>
<path d="M0 0 C3.60296594 -0.41176754 4.78402067 -0.1535853 7.8125 2 C8.534375 2.66 9.25625 3.32 10 4 C6.7 3.67 3.4 3.34 0 3 C0 2.01 0 1.02 0 0 Z " fill="#1E247B" transform="translate(212,289)"/>
<path d="M0 0 C0.99 0 1.98 0 3 0 C3 3.96 3 7.92 3 12 C1.68 11.67 0.36 11.34 -1 11 C-0.34 10.34 0.32 9.68 1 9 C1.34216235 4.34805286 1.34216235 4.34805286 0 0 Z " fill="#5FB0B2" transform="translate(343,265)"/>
<path d="M0 0 C0.66 0.33 1.32 0.66 2 1 C0.02 1.99 0.02 1.99 -2 3 C-1.67 4.32 -1.34 5.64 -1 7 C-2.32 7 -3.64 7 -5 7 C-3.75023244 3.34683329 -3.32901247 2.21934164 0 0 Z " fill="#2286A6" transform="translate(311,284)"/>
<path d="M0 0 C0.99 0 1.98 0 3 0 C3 0.99 3 1.98 3 3 C0 5.1875 0 5.1875 -3 7 C-2.38722388 4.03824877 -1.74627478 2.61941217 0 0 Z " fill="#506291" transform="translate(301,279)"/>
<path d="M0 0 C1.98 0.99 1.98 0.99 4 2 C4 2.99 4 3.98 4 5 C4.99 5.33 5.98 5.66 7 6 C6.01 6.495 6.01 6.495 5 7 C2.5 5.1875 2.5 5.1875 0 3 C0 2.01 0 1.02 0 0 Z " fill="#4E4C8E" transform="translate(136,284)"/>
<path d="M0 0 C0.99 0.33 1.98 0.66 3 1 C2.67 2.32 2.34 3.64 2 5 C0.35 4.67 -1.3 4.34 -3 4 C-3 3.34 -3 2.68 -3 2 C-2.01 1.34 -1.02 0.68 0 0 Z " fill="#41839C" transform="translate(307,281)"/>
<path d="M0 0 C0.33 0 0.66 0 1 0 C1.103125 0.94875 1.20625 1.8975 1.3125 2.875 C1.68539295 6.29107501 1.68539295 6.29107501 5 8 C3.35 8.66 1.7 9.32 0 10 C0 6.7 0 3.4 0 0 Z " fill="#4E929F" transform="translate(304,246)"/>
<path d="M0 0 C0.66 0 1.32 0 2 0 C4 3 4 3 3.625 5.1875 C3.41875 5.785625 3.2125 6.38375 3 7 C2.01 6.67 1.02 6.34 0 6 C0 4.02 0 2.04 0 0 Z " fill="#12CF8A" transform="translate(424,243)"/>
<path d="M0 0 C1.9375 0.1875 1.9375 0.1875 4 1 C5.25 3.0625 5.25 3.0625 6 5 C3 4 3 4 1 3 C0.34 3.99 -0.32 4.98 -1 6 C-1.042721 4.33388095 -1.04063832 2.66617115 -1 1 C-0.67 0.67 -0.34 0.34 0 0 Z " fill="#9294B3" transform="translate(198,237)"/>
<path d="M0 0 C-0.33 1.32 -0.66 2.64 -1 4 C-3.31 3.67 -5.62 3.34 -8 3 C-8 2.34 -8 1.68 -8 1 C-2.25 0 -2.25 0 0 0 Z " fill="#294689" transform="translate(236,212)"/>
<path d="M0 0 C2.64 0.33 5.28 0.66 8 1 C5.42786866 2.61949011 4.32330841 3.04408751 1.25 2.625 C0.5075 2.41875 -0.235 2.2125 -1 2 C-0.67 1.34 -0.34 0.68 0 0 Z " fill="#353770" transform="translate(212,292)"/>
<path d="M0 0 C0.99 0.33 1.98 0.66 3 1 C0.53846154 5.8 0.53846154 5.8 -2.1875 6.8125 C-2.785625 6.874375 -3.38375 6.93625 -4 7 C-4 6.34 -4 5.68 -4 5 C-3.01 4.34 -2.02 3.68 -1 3 C-0.67 2.01 -0.34 1.02 0 0 Z " fill="#57C8B1" transform="translate(445,283)"/>
<path d="M0 0 C-1.625 1.625 -1.625 1.625 -4 3 C-7.25 2.1875 -7.25 2.1875 -10 1 C-10 0.67 -10 0.34 -10 0 C-6.30458414 -0.95024979 -3.69541586 -0.95024979 0 0 Z " fill="#232C75" transform="translate(222,280)"/>
<path d="M0 0 C0.99 0.33 1.98 0.66 3 1 C2.34 2.65 1.68 4.3 1 6 C0.01 6 -0.98 6 -2 6 C-2.99 6.495 -2.99 6.495 -4 7 C-2.79618552 4.50638429 -1.54571278 2.31856917 0 0 Z " fill="#263C83" transform="translate(289,273)"/>
<path d="M0 0 C0.99 0.33 1.98 0.66 3 1 C2.34 2.32 1.68 3.64 1 5 C-0.32 4.34 -1.64 3.68 -3 3 C-2.01 2.01 -1.02 1.02 0 0 Z " fill="#3A3882" transform="translate(52,220)"/>
<path d="M0 0 C0.99 0.66 1.98 1.32 3 2 C1.25 3.5625 1.25 3.5625 -1 5 C-3.25 4.6875 -3.25 4.6875 -5 4 C-3.35 2.68 -1.7 1.36 0 0 Z " fill="#488398" transform="translate(313,276)"/>
<path d="M0 0 C0.66 0.33 1.32 0.66 2 1 C1.67 1.99 1.34 2.98 1 4 C-2.3 3.67 -5.6 3.34 -9 3 C-9 2.67 -9 2.34 -9 2 C-6.03 2 -3.06 2 0 2 C0 1.34 0 0.68 0 0 Z " fill="#9198B9" transform="translate(280,277)"/>
<path d="M0 0 C0 0.66 0 1.32 0 2 C-3.63 2 -7.26 2 -11 2 C-11 1.67 -11 1.34 -11 1 C-9.5437328 0.63743142 -8.08488815 0.28520207 -6.625 -0.0625 C-5.40683594 -0.35833984 -5.40683594 -0.35833984 -4.1640625 -0.66015625 C-2 -1 -2 -1 0 0 Z " fill="#222970" transform="translate(162,250)"/>
<path d="M0 0 C0.97608217 2.92824652 1.08226668 4.95613276 1 8 C0.01 8 -0.98 8 -2 8 C-1.125 1.125 -1.125 1.125 0 0 Z " fill="#21A8A2" transform="translate(341,244)"/>
<path d="M0 0 C-1.98 1.32 -3.96 2.64 -6 4 C-6.33 2.68 -6.66 1.36 -7 0 C-3.98968256 -0.93423645 -3.13349732 -1.04449911 0 0 Z " fill="#5DA7AD" transform="translate(318,247)"/>
<path d="M0 0 C0.99 0 1.98 0 3 0 C2.67 1.98 2.34 3.96 2 6 C0.68 5.67 -0.64 5.34 -2 5 C-1.34 4.01 -0.68 3.02 0 2 C0 1.34 0 0.68 0 0 Z " fill="#15CC9A" transform="translate(422,240)"/>
<path d="" fill="#FFFFFF" transform="translate(0,0)"/>
</svg>
